<svg xmlns="http://www.w3.org/2000/svg">
  <symbol id="notes" viewBox="0 0 24 24">
    <rect fill="none" height="24" width="24"></rect>
    <path d="M19,3H4.99C3.89,3,3,3.9,3,5l0.01,14c0,1.1,0.89,2,1.99,2h10l6-6V5C21,3.9,20.1,3,19,3z M7,8h10v2H7V8z M12,14H7v-2h5V14z M14,19.5V14h5.5L14,19.5z"></path>
  </symbol>
  <symbol id="studies" viewBox="0 0 24 24">
    <path d="M0 0h24v24H0z" fill="none"></path>
    <path d="M5 13.18v4L12 21l7-3.82v-4L12 17l-7-3.82zM12 3L1 9l11 6 9-4.91V17h2V9L12 3z"></path>
  </symbol>
  <symbol id="courses" viewBox="0 0 24 24">
    <path d="M0 0h24v24H0V0z" fill="none"></path>
    <path d="M19 3H4.99c-1.11 0-1.98.89-1.98 2L3 19c0 1.1.88 2 1.99 2H19c1.1 0 2-.9 2-2V5c0-1.11-.9-2-2-2zm0 12h-4c0 1.66-1.35 3-3 3s-3-1.34-3-3H4.99V5H19v10z"></path>
  </symbol>
  <symbol id="home" viewBox="0 0 24 24">
    <path d="M0 0h24v24H0z" fill="none"></path>
    <path d="M10 20v-6h4v6h5v-8h3L12 3 2 12h3v8z"></path>
  </symbol>
</svg>
